<svg width="207" height="31" viewBox="0 0 207 31" fill="none" xmlns="http://www.w3.org/2000/svg">
<path d="M16.4608 3.70923C24.3502 3.70923 30.1155 9.34448 30.1155 17.0171C30.1155 24.6897 24.3502 30.325 16.4608 30.325C8.57145 30.325 2.80615 24.6897 2.80615 17.0171C2.80615 9.34448 8.57145 3.70923 16.4608 3.70923ZM16.4608 23.8661C20.0587 23.8661 22.6162 21.0485 22.6162 17.0171C22.6162 12.9857 20.0587 10.1681 16.4608 10.1681C12.8629 10.1681 10.3054 12.9857 10.3054 17.0171C10.3054 21.0485 12.8629 23.8661 16.4608 23.8661Z" fill="black"/>
<path d="M45.6266 29.8915H38.4309V10.6449H31.5385V4.14271H52.7791L52.2589 10.6449H45.6266V29.8915Z" fill="black"/>
<path d="M75.4993 29.8915H67.7833L66.0927 24.473H58.16L56.4694 29.8915H49.1003L58.0733 4.14271H66.5262L75.4993 29.8915ZM64.3154 18.7944L63.1017 14.8063C62.7116 13.5926 62.4515 12.5522 62.2347 11.4252H62.018C61.8013 12.5522 61.5412 13.5926 61.151 14.8063L59.8939 18.7944H64.3154Z" fill="black"/>
<path d="M101.774 4.14271L92.4978 15.7167L102.208 29.8915H93.4948L87.2961 20.745L85.0853 23.3893V29.8915H77.8895V4.14271H85.0853V16.1935H85.302C85.9089 14.9364 87.5128 12.4656 88.9433 10.5582L93.7116 4.14271H101.774Z" fill="black"/>
<path d="M127.402 4.14271V18.8377C127.402 26.1636 123.111 30.325 115.872 30.325C108.676 30.325 104.384 26.1636 104.384 18.8377V4.14271H111.58V18.3175C111.58 21.742 112.924 23.7361 116.045 23.7361C119.123 23.7361 120.467 21.742 120.467 18.3175V4.14271H127.402Z" fill="black"/>
<path d="M154.716 4.14271V29.8915H147.52V20.1815H138.72V29.8915H131.524V4.14271H138.72V13.6793H147.52V4.14271H154.716Z" fill="black"/>
<path d="M181.841 4.14271V18.8377C181.841 26.1636 177.55 30.325 170.311 30.325C163.115 30.325 158.824 26.1636 158.824 18.8377V4.14271H166.019V18.3175C166.019 21.742 167.363 23.7361 170.484 23.7361C173.562 23.7361 174.906 21.742 174.906 18.3175V4.14271H181.841Z" fill="black"/>
<path d="M206.944 22.3489C206.944 26.7271 203.91 29.8915 197.841 29.8915H185.963V4.14271H196.67C202.783 4.14271 205.73 6.87364 205.73 10.905C205.73 13.4192 204.43 15.4132 202.522 16.3235C205.253 17.2338 206.944 19.4012 206.944 22.3489ZM198.708 12.0754C198.708 10.7316 197.841 9.95136 196.02 9.95136H193.073V14.3729H196.02C197.841 14.3729 198.708 13.5059 198.708 12.0754ZM199.748 21.6987C199.748 20.3549 198.881 19.5313 197.061 19.5313H193.073V24.0828H197.061C198.881 24.0828 199.748 23.1292 199.748 21.6987Z" fill="black"/>
<path d="M43.8205 27.6823H44.3205V27.1823V8.4357H50.4528H50.9144L50.9512 7.97557L51.4713 1.47335L51.5145 0.933481H50.9729H29.7324H29.2324V1.43348V7.9357V8.4357H29.7324H36.1247V27.1823V27.6823H36.6247H43.8205ZM73.6931 27.6823H74.3968L74.1653 27.0177L65.1922 1.26894L65.0753 0.933481H64.7201H56.2672H55.9119L55.795 1.26894L46.8219 27.0177L46.5904 27.6823H47.2941H54.6633H55.0311L55.1406 27.3312L56.7216 22.2638H63.9188L65.4998 27.3312L65.6094 27.6823H65.9771H73.6931ZM100.358 1.74618L101.01 0.933481H99.9682H91.9054H91.6541L91.5041 1.13522L86.7371 7.549C86.7369 7.54924 86.7368 7.54948 86.7366 7.54972C85.7008 8.93083 84.5668 10.6156 83.7791 11.9357V1.43348V0.933481H83.2791H76.0834H75.5834V1.43348V27.1823V27.6823H76.0834H83.2791H83.7791V27.1823V20.8615L85.4481 18.8653L91.2748 27.4628L91.4235 27.6823H91.6887H100.402H101.35L100.814 26.8997L91.3137 13.0308L100.358 1.74618ZM126.096 1.43348V0.933481H125.596H118.66H118.16V1.43348V15.6083C118.16 17.2686 117.832 18.4935 117.209 19.2948C116.604 20.0726 115.661 20.5268 114.239 20.5268C112.792 20.5268 111.839 20.071 111.23 19.2934C110.602 18.4926 110.274 17.2688 110.274 15.6083V1.43348V0.933481H109.774H102.578H102.078V1.43348V16.1285C102.078 19.8888 103.182 22.9018 105.271 24.9743C107.36 27.0462 110.372 28.1157 114.065 28.1157C117.78 28.1157 120.802 27.0466 122.897 24.9748C124.993 22.9021 126.096 19.8889 126.096 16.1285V1.43348ZM28.8093 14.3079C28.8093 6.34747 22.8084 0.5 14.6547 0.5C6.50095 0.5 0.5 6.34747 0.5 14.3079C0.5 22.2683 6.50095 28.1157 14.6547 28.1157C22.8084 28.1157 28.8093 22.2683 28.8093 14.3079ZM20.3101 14.3079C20.3101 16.2181 19.7051 17.8055 18.7102 18.9094C17.7184 20.0097 16.3158 20.6569 14.6547 20.6569C12.9935 20.6569 11.5909 20.0097 10.5991 18.9094C9.60419 17.8055 8.99923 16.2181 8.99923 14.3079C8.99923 12.3977 9.60419 10.8102 10.5991 9.70636C11.5909 8.60603 12.9935 7.95887 14.6547 7.95887C16.3158 7.95887 17.7184 8.60603 18.7102 9.70636C19.7051 10.8102 20.3101 12.3977 20.3101 14.3079ZM60.3202 10.5276C60.4615 11.0793 60.6241 11.642 60.8183 12.2464L61.8345 15.5851H58.7696L59.8209 12.2501C59.8211 12.2495 59.8213 12.2489 59.8215 12.2483C60.0159 11.6432 60.1788 11.0799 60.3202 10.5276Z" fill="white" stroke="black"/>
<path d="M153.24 1.43347V0.933472H152.74H145.544H145.044V1.43347V10.4701H137.245V1.43347V0.933472H136.745H129.549H129.049V1.43347V27.1823V27.6823H129.549H136.745H137.245V27.1823V17.9723H145.044V27.1823V27.6823H145.544H152.74H153.24V27.1823V1.43347ZM180.366 1.43347V0.933472H179.866H172.93H172.43V1.43347V15.6083C172.43 17.2686 172.102 18.4935 171.479 19.2948C170.874 20.0726 169.931 20.5268 168.509 20.5268C167.062 20.5268 166.109 20.071 165.499 19.2934C164.872 18.4926 164.544 17.2688 164.544 15.6083V1.43347V0.933472H164.044H156.848H156.348V1.43347V16.1285C156.348 19.8888 157.451 22.9018 159.541 24.9743C161.63 27.0462 164.642 28.1157 168.335 28.1157C172.049 28.1157 175.072 27.0466 177.167 24.9748C179.262 22.9021 180.366 19.8888 180.366 16.1285V1.43347ZM183.488 27.1823V27.6823H183.988H195.865C198.983 27.6823 201.39 26.8691 203.023 25.4277C204.664 23.9804 205.468 21.9496 205.468 19.6397C205.468 16.8283 204.026 14.6647 201.668 13.5292C203.249 12.3913 204.255 10.4792 204.255 8.19578C204.255 6.04736 203.463 4.20396 201.827 2.91064C200.207 1.62995 197.817 0.933472 194.695 0.933472H183.988H183.488V1.43347V27.1823ZM194.045 7.74212C194.894 7.74212 195.435 7.9257 195.755 8.18742C196.058 8.43489 196.232 8.80845 196.232 9.36618C196.232 9.97823 196.05 10.4006 195.739 10.6779C195.418 10.9635 194.883 11.1636 194.045 11.1636H191.597V7.74212H194.045ZM195.085 17.3221C195.929 17.3221 196.468 17.5139 196.79 17.7844C197.097 18.0432 197.273 18.4307 197.273 18.9895C197.273 19.6029 197.089 20.053 196.769 20.3535C196.445 20.6577 195.912 20.8736 195.085 20.8736H191.597V17.3221H195.085Z" fill="#6F35EB" stroke="black"/>
</svg>
