<svg width="206" height="34" viewBox="0 0 206 34" fill="none" xmlns="http://www.w3.org/2000/svg">
<path d="M5.11365 5.48166H12.459L17.5116 17.7947H17.7664L22.819 5.48166H30.1644V27.2206H24.39V14.6528H24.2202L19.3798 27.0508H15.8982L11.0579 14.5679H10.8881V27.2206H5.11365V5.48166Z" fill="black"/>
<path d="M36.6128 33.3347C35.9406 33.3347 35.3002 33.2816 34.6916 33.1755C34.083 33.0764 33.5487 32.9384 33.0888 32.7615L34.3625 28.6005C34.8437 28.7704 35.2825 28.8801 35.6788 28.9296C36.0821 28.9791 36.4253 28.9508 36.7084 28.8447C36.9985 28.7385 37.2073 28.5368 37.3346 28.2396L37.462 27.9424L31.7301 10.9164H37.8442L40.4766 22.2105H40.6464L43.3214 10.9164H49.4779L43.5336 28.5793C43.2364 29.478 42.8048 30.2847 42.2387 30.9995C41.6796 31.7213 40.9437 32.2909 40.0308 32.7084C39.1179 33.1259 37.9786 33.3347 36.6128 33.3347Z" fill="black"/>
<path d="M54.6632 27.2206H48.2944L55.4699 5.48166H63.5371L70.7127 27.2206H64.3438L59.5884 11.4684H59.4186L54.6632 27.2206ZM53.4743 18.6439H65.4478V23.0597H53.4743V18.6439Z" fill="black"/>
<path d="M78.7507 18.0495V27.2206H72.8913V10.9164H78.4534V14.0159H78.6233C78.9771 12.9827 79.5998 12.1725 80.4915 11.5851C81.3902 10.9978 82.4375 10.7041 83.6334 10.7041C84.7869 10.7041 85.7882 10.9695 86.6374 11.5002C87.4936 12.0239 88.1553 12.7457 88.6223 13.6656C89.0965 14.5856 89.33 15.6364 89.3229 16.8182V27.2206H83.4636V18.0495C83.4707 17.2428 83.2655 16.6094 82.8479 16.1495C82.4375 15.6895 81.8643 15.4595 81.1284 15.4595C80.6472 15.4595 80.2261 15.5657 79.8652 15.7779C79.5114 15.9832 79.2389 16.2804 79.0479 16.6696C78.8568 17.0517 78.7577 17.5117 78.7507 18.0495Z" fill="black"/>
<path d="M92.2154 27.2206V10.9164H98.0748V27.2206H92.2154ZM95.1451 9.21805C94.3525 9.21805 93.6732 8.95622 93.1071 8.43256C92.541 7.9089 92.2579 7.27909 92.2579 6.54314C92.2579 5.80718 92.541 5.17737 93.1071 4.65371C93.6732 4.13005 94.3525 3.86823 95.1451 3.86823C95.9447 3.86823 96.6241 4.13005 97.1831 4.65371C97.7492 5.17737 98.0323 5.80718 98.0323 6.54314C98.0323 7.27909 97.7492 7.9089 97.1831 8.43256C96.6241 8.95622 95.9447 9.21805 95.1451 9.21805Z" fill="black"/>
<path d="M101.06 27.2206V10.9164H106.622V14.0159H106.792C107.132 12.9969 107.712 12.1902 108.533 11.5957C109.354 11.0013 110.33 10.7041 111.463 10.7041C112.609 10.7041 113.596 11.0084 114.424 11.617C115.252 12.2185 115.751 13.0181 115.921 14.0159H116.091C116.367 13.0181 116.954 12.2185 117.853 11.617C118.751 11.0084 119.806 10.7041 121.016 10.7041C122.58 10.7041 123.846 11.2065 124.816 12.2114C125.792 13.2163 126.281 14.5537 126.281 16.2238V27.2206H120.421V17.7098C120.421 16.9951 120.241 16.4361 119.88 16.0327C119.519 15.6223 119.034 15.417 118.426 15.417C117.824 15.417 117.347 15.6223 116.993 16.0327C116.646 16.4361 116.473 16.9951 116.473 17.7098V27.2206H110.868V17.7098C110.868 16.9951 110.688 16.4361 110.327 16.0327C109.966 15.6223 109.481 15.417 108.873 15.417C108.469 15.417 108.122 15.509 107.832 15.693C107.542 15.877 107.316 16.1424 107.153 16.4891C106.997 16.8288 106.919 17.2357 106.919 17.7098V27.2206H101.06Z" fill="black"/>
<path d="M136.983 27.5178C135.242 27.5178 133.742 27.1852 132.482 26.5201C131.23 25.8478 130.264 24.8854 129.585 23.6328C128.912 22.3732 128.576 20.8659 128.576 19.111C128.576 17.4268 128.916 15.9549 129.595 14.6952C130.275 13.4356 131.233 12.4555 132.472 11.755C133.71 11.0544 135.171 10.7041 136.856 10.7041C138.087 10.7041 139.202 10.8952 140.199 11.2773C141.197 11.6594 142.05 12.2149 142.757 12.9438C143.465 13.6656 144.01 14.5431 144.392 15.5763C144.774 16.6094 144.965 17.7735 144.965 19.0685V20.4272H130.402V17.2003H139.573C139.566 16.7333 139.446 16.3228 139.212 15.969C138.986 15.6081 138.678 15.3286 138.289 15.1305C137.907 14.9252 137.471 14.8226 136.983 14.8226C136.509 14.8226 136.074 14.9252 135.677 15.1305C135.281 15.3286 134.963 15.6046 134.722 15.9584C134.489 16.3122 134.365 16.7262 134.351 17.2003V20.682C134.351 21.2056 134.46 21.6727 134.68 22.0831C134.899 22.4935 135.214 22.8155 135.624 23.049C136.035 23.2826 136.53 23.3993 137.11 23.3993C137.514 23.3993 137.882 23.3427 138.214 23.2295C138.554 23.1163 138.844 22.9535 139.085 22.7412C139.325 22.5218 139.502 22.26 139.615 21.9557H144.965C144.781 23.088 144.346 24.0716 143.66 24.9066C142.973 25.7346 142.064 26.3785 140.932 26.8385C139.807 27.2914 138.49 27.5178 136.983 27.5178Z" fill="black"/>
<path d="M147.271 27.2206V5.48166H153.173V13.9734H160.986V5.48166H166.887V27.2206H160.986V18.7288H153.173V27.2206H147.271Z" fill="black"/>
<path d="M180.347 20.0875V10.9164H186.206V27.2206H180.644V24.1211H180.474C180.12 25.1614 179.501 25.9752 178.617 26.5625C177.732 27.1428 176.681 27.4329 175.464 27.4329C174.325 27.4329 173.327 27.1711 172.471 26.6474C171.622 26.1238 170.96 25.402 170.486 24.482C170.019 23.5621 169.782 22.5077 169.775 21.3188V10.9164H175.634V20.0875C175.641 20.8942 175.846 21.5276 176.25 21.9876C176.66 22.4475 177.233 22.6775 177.969 22.6775C178.457 22.6775 178.878 22.5749 179.232 22.3697C179.593 22.1574 179.869 21.8602 180.06 21.4781C180.258 21.0888 180.354 20.6253 180.347 20.0875Z" fill="black"/>
<path d="M189.101 27.2206V5.48166H194.961V13.7612H195.046C195.258 13.2092 195.569 12.7032 195.98 12.2432C196.39 11.7762 196.9 11.4047 197.508 11.1287C198.117 10.8456 198.824 10.7041 199.631 10.7041C200.707 10.7041 201.729 10.9907 202.699 11.5639C203.675 12.1371 204.468 13.0393 205.077 14.2707C205.692 15.502 206 17.1013 206 19.0685C206 20.9509 205.706 22.5112 205.119 23.7496C204.539 24.988 203.76 25.9115 202.784 26.5201C201.814 27.1286 200.749 27.4329 199.589 27.4329C198.824 27.4329 198.142 27.3091 197.54 27.0614C196.946 26.8066 196.436 26.4634 196.012 26.0318C195.594 25.593 195.272 25.0977 195.046 24.5457H194.918V27.2206H189.101ZM194.833 19.0685C194.833 19.8611 194.936 20.5475 195.141 21.1278C195.353 21.701 195.651 22.1468 196.033 22.4652C196.422 22.7766 196.885 22.9323 197.423 22.9323C197.961 22.9323 198.418 22.7801 198.793 22.4758C199.175 22.1645 199.465 21.7222 199.663 21.149C199.868 20.5687 199.971 19.8752 199.971 19.0685C199.971 18.2618 199.868 17.5718 199.663 16.9986C199.465 16.4184 199.175 15.9761 198.793 15.6718C198.418 15.3604 197.961 15.2048 197.423 15.2048C196.885 15.2048 196.422 15.3604 196.033 15.6718C195.651 15.9761 195.353 16.4184 195.141 16.9986C194.936 17.5718 194.833 18.2618 194.833 19.0685Z" fill="black"/>
<path d="M143.605 25.3524V26.3524H144.605H150.507H151.507V25.3524V17.8606H157.32V25.3524V26.3524H158.32H164.221H165.221V25.3524V3.61346V2.61346H164.221H158.32H157.32V3.61346V11.1052H151.507V3.61346V2.61346H150.507H144.605H143.605V3.61346V25.3524ZM176.681 18.2193H176.681L176.681 18.2325C176.686 18.6452 176.613 18.9412 176.503 19.1562L176.503 19.1562L176.5 19.1626C176.394 19.3747 176.252 19.5258 176.062 19.6379C175.888 19.7382 175.648 19.8093 175.303 19.8093C174.794 19.8093 174.516 19.6613 174.333 19.4568C174.133 19.2279 173.974 18.8537 173.968 18.2147V9.0482V8.0482H172.968H167.109H166.109V9.0482L166.109 19.4506L166.109 19.4566C166.116 20.777 166.381 21.9884 166.928 23.0665L166.928 23.0665L166.931 23.0719C167.485 24.1472 168.27 25.0076 169.28 25.6304L169.283 25.6323C170.317 26.2645 171.5 26.5647 172.798 26.5647C174.18 26.5647 175.428 26.233 176.499 25.5305L176.499 25.5305L176.504 25.5274C176.67 25.4173 176.828 25.3006 176.978 25.1772V25.3524V26.3524H177.978H183.54H184.54V25.3524V9.0482V8.0482H183.54H177.681H176.681V9.0482V18.2193ZM185.435 25.3524V26.3524H186.435H192.252H193.252V25.4068C193.625 25.6871 194.036 25.9219 194.48 26.1124L194.487 26.1152L194.493 26.1179C195.235 26.4232 196.05 26.5647 196.923 26.5647C198.268 26.5647 199.517 26.2091 200.648 25.4995C201.816 24.7712 202.711 23.6858 203.358 22.3075C204.027 20.8954 204.334 19.1776 204.334 17.2003C204.334 15.1411 204.014 13.3739 203.306 11.9576C202.63 10.5904 201.717 9.52502 200.54 8.83409C199.425 8.17478 198.228 7.83591 196.965 7.83591C196.043 7.83591 195.188 7.9975 194.425 8.35171C194.015 8.53779 193.638 8.76297 193.295 9.02805V3.61346V2.61346H192.295H186.435H185.435V3.61346V25.3524ZM196.054 18.9474L196.052 18.9541C195.901 19.3911 195.704 19.6617 195.496 19.8313C195.32 19.9744 195.093 20.0641 194.757 20.0641C194.432 20.0641 194.195 19.9764 193.999 19.8222C193.783 19.6394 193.578 19.3565 193.415 18.9192C193.259 18.4728 193.167 17.9066 193.167 17.2003C193.167 16.475 193.26 15.9064 193.416 15.4706C193.581 15.0197 193.785 14.7487 193.99 14.5859L193.991 14.5845C194.189 14.4265 194.427 14.3366 194.757 14.3366C195.088 14.3366 195.311 14.4263 195.488 14.573L195.496 14.5795L195.504 14.5859C195.702 14.7441 195.899 15.0081 196.051 15.4536L196.053 15.4606L196.056 15.4675C196.212 15.9038 196.305 16.4733 196.305 17.2003C196.305 17.9268 196.212 18.5016 196.054 18.9474Z" fill="#6F35EB" stroke="black" stroke-width="2"/>
<mask id="path-3-outside-1_316_12" maskUnits="userSpaceOnUse" x="0" y="0" width="145" height="34" fill="black">
<rect fill="white" width="145" height="34"/>
<path d="M2 3.61344H9.34539L14.398 15.9265H14.6528L19.7054 3.61344H27.0508V25.3524H21.2763V12.7846H21.1065L16.2662 25.1826H12.7846L7.94425 12.6996H7.77441V25.3524H2V3.61344Z"/>
<path d="M33.4992 31.4665C32.8269 31.4665 32.1865 31.4134 31.5779 31.3073C30.9694 31.2082 30.4351 31.0702 29.9751 30.8933L31.2489 26.7323C31.7301 26.9021 32.1688 27.0118 32.5651 27.0614C32.9685 27.1109 33.3117 27.0826 33.5947 26.9765C33.8849 26.8703 34.0936 26.6686 34.221 26.3714L34.3484 26.0742L28.6164 9.04818H34.7305L37.363 20.3422H37.5328L40.2077 9.04818H46.3643L40.42 26.7111C40.1228 27.6098 39.6911 28.4165 39.125 29.1312C38.566 29.853 37.83 30.4227 36.9171 30.8402C36.0043 31.2577 34.865 31.4665 33.4992 31.4665Z"/>
<path d="M51.5495 25.3524H45.1807L52.3563 3.61344H60.4235L67.599 25.3524H61.2302L56.4748 9.60014H56.3049L51.5495 25.3524ZM50.3607 16.7757H62.3341V21.1914H50.3607V16.7757Z"/>
<path d="M75.637 16.1813V25.3524H69.7777V9.04818H75.3398V12.1477H75.5096C75.8635 11.1145 76.4862 10.3043 77.3778 9.71691C78.2765 9.12956 79.3239 8.83588 80.5198 8.83588C81.6733 8.83588 82.6746 9.10125 83.5238 9.63199C84.38 10.1556 85.0417 10.8774 85.5087 11.7974C85.9828 12.7173 86.2164 13.7682 86.2093 14.95V25.3524H80.35V16.1813C80.357 15.3746 80.1518 14.7412 79.7343 14.2812C79.3239 13.8213 78.7507 13.5913 78.0147 13.5913C77.5335 13.5913 77.1125 13.6974 76.7516 13.9097C76.3977 14.1149 76.1253 14.4122 75.9342 14.8014C75.7432 15.1835 75.6441 15.6435 75.637 16.1813Z"/>
<path d="M89.1018 25.3524V9.04818H94.9611V25.3524H89.1018ZM92.0315 7.34982C91.2389 7.34982 90.5596 7.08799 89.9934 6.56433C89.4273 6.04067 89.1443 5.41086 89.1443 4.67491C89.1443 3.93896 89.4273 3.30915 89.9934 2.78549C90.5596 2.26183 91.2389 2 92.0315 2C92.8311 2 93.5104 2.26183 94.0695 2.78549C94.6356 3.30915 94.9187 3.93896 94.9187 4.67491C94.9187 5.41086 94.6356 6.04067 94.0695 6.56433C93.5104 7.08799 92.8311 7.34982 92.0315 7.34982Z"/>
<path d="M97.9465 25.3524V9.04818H103.509V12.1477H103.678C104.018 11.1287 104.598 10.3219 105.419 9.72752C106.24 9.1331 107.217 8.83588 108.349 8.83588C109.495 8.83588 110.483 9.14017 111.31 9.74875C112.138 10.3503 112.637 11.1499 112.807 12.1477H112.977C113.253 11.1499 113.84 10.3503 114.739 9.74875C115.638 9.14017 116.692 8.83588 117.902 8.83588C119.466 8.83588 120.733 9.33831 121.702 10.3432C122.679 11.348 123.167 12.6855 123.167 14.3555V25.3524H117.308V15.8416C117.308 15.1269 117.127 14.5678 116.766 14.1645C116.406 13.754 115.921 13.5488 115.312 13.5488C114.711 13.5488 114.233 13.754 113.879 14.1645C113.532 14.5678 113.359 15.1269 113.359 15.8416V25.3524H107.755V15.8416C107.755 15.1269 107.574 14.5678 107.213 14.1645C106.852 13.754 106.368 13.5488 105.759 13.5488C105.356 13.5488 105.009 13.6408 104.719 13.8248C104.429 14.0088 104.202 14.2742 104.039 14.6209C103.884 14.9606 103.806 15.3675 103.806 15.8416V25.3524H97.9465Z"/>
<path d="M133.869 25.6496C132.129 25.6496 130.628 25.317 129.369 24.6518C128.116 23.9796 127.15 23.0172 126.471 21.7646C125.799 20.505 125.463 18.9977 125.463 17.2427C125.463 15.5585 125.802 14.0866 126.482 12.827C127.161 11.5674 128.12 10.5873 129.358 9.88674C130.597 9.18617 132.058 8.83588 133.742 8.83588C134.973 8.83588 136.088 9.02695 137.086 9.40908C138.083 9.79121 138.936 10.3467 139.644 11.0756C140.351 11.7974 140.896 12.6749 141.278 13.708C141.661 14.7412 141.852 15.9053 141.852 17.2003V18.559H127.288V15.3321H136.459C136.452 14.865 136.332 14.4546 136.099 14.1008C135.872 13.7399 135.564 13.4604 135.175 13.2622C134.793 13.057 134.358 12.9544 133.869 12.9544C133.395 12.9544 132.96 13.057 132.564 13.2622C132.168 13.4604 131.849 13.7363 131.608 14.0902C131.375 14.444 131.251 14.858 131.237 15.3321V18.8137C131.237 19.3374 131.347 19.8044 131.566 20.2149C131.785 20.6253 132.1 20.9473 132.511 21.1808C132.921 21.4143 133.417 21.5311 133.997 21.5311C134.4 21.5311 134.768 21.4745 135.101 21.3613C135.44 21.248 135.731 21.0853 135.971 20.873C136.212 20.6536 136.389 20.3918 136.502 20.0875H141.852C141.668 21.2197 141.232 22.2034 140.546 23.0384C139.86 23.8663 138.95 24.5103 137.818 24.9703C136.693 25.4232 135.377 25.6496 133.869 25.6496Z"/>
</mask>
<path d="M2 3.61344H9.34539L14.398 15.9265H14.6528L19.7054 3.61344H27.0508V25.3524H21.2763V12.7846H21.1065L16.2662 25.1826H12.7846L7.94425 12.6996H7.77441V25.3524H2V3.61344Z" fill="white"/>
<path d="M33.4992 31.4665C32.8269 31.4665 32.1865 31.4134 31.5779 31.3073C30.9694 31.2082 30.4351 31.0702 29.9751 30.8933L31.2489 26.7323C31.7301 26.9021 32.1688 27.0118 32.5651 27.0614C32.9685 27.1109 33.3117 27.0826 33.5947 26.9765C33.8849 26.8703 34.0936 26.6686 34.221 26.3714L34.3484 26.0742L28.6164 9.04818H34.7305L37.363 20.3422H37.5328L40.2077 9.04818H46.3643L40.42 26.7111C40.1228 27.6098 39.6911 28.4165 39.125 29.1312C38.566 29.853 37.83 30.4227 36.9171 30.8402C36.0043 31.2577 34.865 31.4665 33.4992 31.4665Z" fill="white"/>
<path d="M51.5495 25.3524H45.1807L52.3563 3.61344H60.4235L67.599 25.3524H61.2302L56.4748 9.60014H56.3049L51.5495 25.3524ZM50.3607 16.7757H62.3341V21.1914H50.3607V16.7757Z" fill="white"/>
<path d="M75.637 16.1813V25.3524H69.7777V9.04818H75.3398V12.1477H75.5096C75.8635 11.1145 76.4862 10.3043 77.3778 9.71691C78.2765 9.12956 79.3239 8.83588 80.5198 8.83588C81.6733 8.83588 82.6746 9.10125 83.5238 9.63199C84.38 10.1556 85.0417 10.8774 85.5087 11.7974C85.9828 12.7173 86.2164 13.7682 86.2093 14.95V25.3524H80.35V16.1813C80.357 15.3746 80.1518 14.7412 79.7343 14.2812C79.3239 13.8213 78.7507 13.5913 78.0147 13.5913C77.5335 13.5913 77.1125 13.6974 76.7516 13.9097C76.3977 14.1149 76.1253 14.4122 75.9342 14.8014C75.7432 15.1835 75.6441 15.6435 75.637 16.1813Z" fill="white"/>
<path d="M89.1018 25.3524V9.04818H94.9611V25.3524H89.1018ZM92.0315 7.34982C91.2389 7.34982 90.5596 7.08799 89.9934 6.56433C89.4273 6.04067 89.1443 5.41086 89.1443 4.67491C89.1443 3.93896 89.4273 3.30915 89.9934 2.78549C90.5596 2.26183 91.2389 2 92.0315 2C92.8311 2 93.5104 2.26183 94.0695 2.78549C94.6356 3.30915 94.9187 3.93896 94.9187 4.67491C94.9187 5.41086 94.6356 6.04067 94.0695 6.56433C93.5104 7.08799 92.8311 7.34982 92.0315 7.34982Z" fill="white"/>
<path d="M97.9465 25.3524V9.04818H103.509V12.1477H103.678C104.018 11.1287 104.598 10.3219 105.419 9.72752C106.24 9.1331 107.217 8.83588 108.349 8.83588C109.495 8.83588 110.483 9.14017 111.31 9.74875C112.138 10.3503 112.637 11.1499 112.807 12.1477H112.977C113.253 11.1499 113.84 10.3503 114.739 9.74875C115.638 9.14017 116.692 8.83588 117.902 8.83588C119.466 8.83588 120.733 9.33831 121.702 10.3432C122.679 11.348 123.167 12.6855 123.167 14.3555V25.3524H117.308V15.8416C117.308 15.1269 117.127 14.5678 116.766 14.1645C116.406 13.754 115.921 13.5488 115.312 13.5488C114.711 13.5488 114.233 13.754 113.879 14.1645C113.532 14.5678 113.359 15.1269 113.359 15.8416V25.3524H107.755V15.8416C107.755 15.1269 107.574 14.5678 107.213 14.1645C106.852 13.754 106.368 13.5488 105.759 13.5488C105.356 13.5488 105.009 13.6408 104.719 13.8248C104.429 14.0088 104.202 14.2742 104.039 14.6209C103.884 14.9606 103.806 15.3675 103.806 15.8416V25.3524H97.9465Z" fill="white"/>
<path d="M133.869 25.6496C132.129 25.6496 130.628 25.317 129.369 24.6518C128.116 23.9796 127.15 23.0172 126.471 21.7646C125.799 20.505 125.463 18.9977 125.463 17.2427C125.463 15.5585 125.802 14.0866 126.482 12.827C127.161 11.5674 128.12 10.5873 129.358 9.88674C130.597 9.18617 132.058 8.83588 133.742 8.83588C134.973 8.83588 136.088 9.02695 137.086 9.40908C138.083 9.79121 138.936 10.3467 139.644 11.0756C140.351 11.7974 140.896 12.6749 141.278 13.708C141.661 14.7412 141.852 15.9053 141.852 17.2003V18.559H127.288V15.3321H136.459C136.452 14.865 136.332 14.4546 136.099 14.1008C135.872 13.7399 135.564 13.4604 135.175 13.2622C134.793 13.057 134.358 12.9544 133.869 12.9544C133.395 12.9544 132.96 13.057 132.564 13.2622C132.168 13.4604 131.849 13.7363 131.608 14.0902C131.375 14.444 131.251 14.858 131.237 15.3321V18.8137C131.237 19.3374 131.347 19.8044 131.566 20.2149C131.785 20.6253 132.1 20.9473 132.511 21.1808C132.921 21.4143 133.417 21.5311 133.997 21.5311C134.4 21.5311 134.768 21.4745 135.101 21.3613C135.44 21.248 135.731 21.0853 135.971 20.873C136.212 20.6536 136.389 20.3918 136.502 20.0875H141.852C141.668 21.2197 141.232 22.2034 140.546 23.0384C139.86 23.8663 138.95 24.5103 137.818 24.9703C136.693 25.4232 135.377 25.6496 133.869 25.6496Z" fill="white"/>
<path d="M2 3.61344H9.34539L14.398 15.9265H14.6528L19.7054 3.61344H27.0508V25.3524H21.2763V12.7846H21.1065L16.2662 25.1826H12.7846L7.94425 12.6996H7.77441V25.3524H2V3.61344Z" stroke="black" stroke-width="4" mask="url(#path-3-outside-1_316_12)"/>
<path d="M33.4992 31.4665C32.8269 31.4665 32.1865 31.4134 31.5779 31.3073C30.9694 31.2082 30.4351 31.0702 29.9751 30.8933L31.2489 26.7323C31.7301 26.9021 32.1688 27.0118 32.5651 27.0614C32.9685 27.1109 33.3117 27.0826 33.5947 26.9765C33.8849 26.8703 34.0936 26.6686 34.221 26.3714L34.3484 26.0742L28.6164 9.04818H34.7305L37.363 20.3422H37.5328L40.2077 9.04818H46.3643L40.42 26.7111C40.1228 27.6098 39.6911 28.4165 39.125 29.1312C38.566 29.853 37.83 30.4227 36.9171 30.8402C36.0043 31.2577 34.865 31.4665 33.4992 31.4665Z" stroke="black" stroke-width="4" mask="url(#path-3-outside-1_316_12)"/>
<path d="M51.5495 25.3524H45.1807L52.3563 3.61344H60.4235L67.599 25.3524H61.2302L56.4748 9.60014H56.3049L51.5495 25.3524ZM50.3607 16.7757H62.3341V21.1914H50.3607V16.7757Z" stroke="black" stroke-width="4" mask="url(#path-3-outside-1_316_12)"/>
<path d="M75.637 16.1813V25.3524H69.7777V9.04818H75.3398V12.1477H75.5096C75.8635 11.1145 76.4862 10.3043 77.3778 9.71691C78.2765 9.12956 79.3239 8.83588 80.5198 8.83588C81.6733 8.83588 82.6746 9.10125 83.5238 9.63199C84.38 10.1556 85.0417 10.8774 85.5087 11.7974C85.9828 12.7173 86.2164 13.7682 86.2093 14.95V25.3524H80.35V16.1813C80.357 15.3746 80.1518 14.7412 79.7343 14.2812C79.3239 13.8213 78.7507 13.5913 78.0147 13.5913C77.5335 13.5913 77.1125 13.6974 76.7516 13.9097C76.3977 14.1149 76.1253 14.4122 75.9342 14.8014C75.7432 15.1835 75.6441 15.6435 75.637 16.1813Z" stroke="black" stroke-width="4" mask="url(#path-3-outside-1_316_12)"/>
<path d="M89.1018 25.3524V9.04818H94.9611V25.3524H89.1018ZM92.0315 7.34982C91.2389 7.34982 90.5596 7.08799 89.9934 6.56433C89.4273 6.04067 89.1443 5.41086 89.1443 4.67491C89.1443 3.93896 89.4273 3.30915 89.9934 2.78549C90.5596 2.26183 91.2389 2 92.0315 2C92.8311 2 93.5104 2.26183 94.0695 2.78549C94.6356 3.30915 94.9187 3.93896 94.9187 4.67491C94.9187 5.41086 94.6356 6.04067 94.0695 6.56433C93.5104 7.08799 92.8311 7.34982 92.0315 7.34982Z" stroke="black" stroke-width="4" mask="url(#path-3-outside-1_316_12)"/>
<path d="M97.9465 25.3524V9.04818H103.509V12.1477H103.678C104.018 11.1287 104.598 10.3219 105.419 9.72752C106.24 9.1331 107.217 8.83588 108.349 8.83588C109.495 8.83588 110.483 9.14017 111.31 9.74875C112.138 10.3503 112.637 11.1499 112.807 12.1477H112.977C113.253 11.1499 113.84 10.3503 114.739 9.74875C115.638 9.14017 116.692 8.83588 117.902 8.83588C119.466 8.83588 120.733 9.33831 121.702 10.3432C122.679 11.348 123.167 12.6855 123.167 14.3555V25.3524H117.308V15.8416C117.308 15.1269 117.127 14.5678 116.766 14.1645C116.406 13.754 115.921 13.5488 115.312 13.5488C114.711 13.5488 114.233 13.754 113.879 14.1645C113.532 14.5678 113.359 15.1269 113.359 15.8416V25.3524H107.755V15.8416C107.755 15.1269 107.574 14.5678 107.213 14.1645C106.852 13.754 106.368 13.5488 105.759 13.5488C105.356 13.5488 105.009 13.6408 104.719 13.8248C104.429 14.0088 104.202 14.2742 104.039 14.6209C103.884 14.9606 103.806 15.3675 103.806 15.8416V25.3524H97.9465Z" stroke="black" stroke-width="4" mask="url(#path-3-outside-1_316_12)"/>
<path d="M133.869 25.6496C132.129 25.6496 130.628 25.317 129.369 24.6518C128.116 23.9796 127.15 23.0172 126.471 21.7646C125.799 20.505 125.463 18.9977 125.463 17.2427C125.463 15.5585 125.802 14.0866 126.482 12.827C127.161 11.5674 128.12 10.5873 129.358 9.88674C130.597 9.18617 132.058 8.83588 133.742 8.83588C134.973 8.83588 136.088 9.02695 137.086 9.40908C138.083 9.79121 138.936 10.3467 139.644 11.0756C140.351 11.7974 140.896 12.6749 141.278 13.708C141.661 14.7412 141.852 15.9053 141.852 17.2003V18.559H127.288V15.3321H136.459C136.452 14.865 136.332 14.4546 136.099 14.1008C135.872 13.7399 135.564 13.4604 135.175 13.2622C134.793 13.057 134.358 12.9544 133.869 12.9544C133.395 12.9544 132.96 13.057 132.564 13.2622C132.168 13.4604 131.849 13.7363 131.608 14.0902C131.375 14.444 131.251 14.858 131.237 15.3321V18.8137C131.237 19.3374 131.347 19.8044 131.566 20.2149C131.785 20.6253 132.1 20.9473 132.511 21.1808C132.921 21.4143 133.417 21.5311 133.997 21.5311C134.4 21.5311 134.768 21.4745 135.101 21.3613C135.44 21.248 135.731 21.0853 135.971 20.873C136.212 20.6536 136.389 20.3918 136.502 20.0875H141.852C141.668 21.2197 141.232 22.2034 140.546 23.0384C139.86 23.8663 138.95 24.5103 137.818 24.9703C136.693 25.4232 135.377 25.6496 133.869 25.6496Z" stroke="black" stroke-width="4" mask="url(#path-3-outside-1_316_12)"/>
</svg>
